<svg width="24" height="24" viewBox="0 0 24 24" fill="none" xmlns="http://www.w3.org/2000/svg">
<g clip-path="url(#clip0_1366_1495)">
<path fill-rule="evenodd" clip-rule="evenodd" d="M19.525 0.751045C18.9414 0.765093 18.3548 0.920371 17.8166 1.23107C16.0945 2.22533 15.4983 4.45211 16.4926 6.17419C16.5092 6.20292 16.5271 6.23077 16.5443 6.25893L12.2789 10.2169C11.0758 9.32268 9.58808 8.79246 7.97898 8.79246C7.52229 8.79246 7.07592 8.83638 6.64239 8.91796L5.31524 5.77262C6.38156 4.92087 6.70062 3.37939 5.99921 2.16452C5.22672 0.826517 3.49223 0.362923 2.15423 1.13542C0.816224 1.90792 0.351054 3.64084 1.12355 4.97884C1.68748 5.95559 2.76433 6.4675 3.82493 6.37188L5.09876 9.39329C2.54339 10.5095 0.750204 13.0615 0.750204 16.0212C0.750196 18.2735 1.78844 20.2897 3.41078 21.6169C3.50655 21.7524 3.64191 21.8549 3.79826 21.9103C4.97996 22.7521 6.4224 23.25 7.97898 23.25C9.58933 23.25 11.0785 22.7195 12.282 21.824C12.3498 21.7856 12.4116 21.7375 12.4656 21.6812C13.172 21.1199 13.7707 20.4299 14.2273 19.6466L17.6189 20.42C17.6141 20.9057 17.7321 21.398 17.9907 21.8459C18.7632 23.184 20.4977 23.6475 21.8357 22.875C23.1737 22.1025 23.6388 20.3696 22.8663 19.0316C22.0938 17.6936 20.3593 17.2285 19.0213 18.001C18.6342 18.2245 18.3216 18.5294 18.0895 18.881L14.8861 18.1484C15.0941 17.4754 15.2077 16.7612 15.2077 16.0212C15.2077 15.7236 15.1881 15.431 15.1528 15.1427L17.9922 14.6391C18.7649 15.9759 20.4983 16.4404 21.8356 15.6682C23.1736 14.8957 23.6372 13.1612 22.8647 11.8232C22.0922 10.4852 20.3593 10.0217 19.0213 10.7941C18.1744 11.2831 17.6784 12.1568 17.6236 13.072L14.781 13.5771C14.4793 12.7413 14.0275 11.9764 13.4585 11.315L17.6722 7.40409C18.7763 8.10901 20.2276 8.19475 21.434 7.49821C23.1561 6.50397 23.7539 4.27876 22.7596 2.55667C22.0761 1.37274 20.8089 0.720124 19.525 0.751045ZM19.5736 2.34959C20.2862 2.32943 20.9832 2.69282 21.3683 3.35986C21.9285 4.3301 21.6012 5.54657 20.631 6.10673C19.6607 6.6669 18.4443 6.34123 17.8841 5.37099C17.3239 4.40076 17.6496 3.18272 18.6198 2.62255C18.923 2.4475 19.2497 2.35875 19.5736 2.34959ZM3.53166 2.36057C3.95957 2.34715 4.37673 2.56469 4.60939 2.96768C4.94781 3.55384 4.7516 4.27957 4.16543 4.61799C3.57928 4.95641 2.85355 4.76177 2.51513 4.17561C2.17671 3.58946 2.37134 2.86528 2.9575 2.52686C3.14068 2.4211 3.33715 2.36666 3.53166 2.36057ZM7.97905 10.3988C11.0937 10.3988 13.6014 12.9065 13.6014 16.0212C13.6014 17.4467 13.0752 18.7438 12.2068 19.7328C11.7169 18.8405 10.9527 18.1195 10.0294 17.6841C10.738 17.0931 11.1918 16.2056 11.1918 15.218C11.1918 13.4531 9.74391 12.0052 7.97905 12.0052C6.2142 12.0052 4.76626 13.4531 4.76626 15.218C4.76626 16.2056 5.22011 17.0931 5.92871 17.6841C5.00553 18.1197 4.24115 18.8403 3.75128 19.7328C2.88289 18.7438 2.35666 17.4468 2.35667 16.0212C2.35667 12.9065 4.86438 10.3988 7.97905 10.3988ZM20.3988 12.0193C20.8263 12.0061 21.2423 12.2234 21.475 12.6264C21.8134 13.2126 21.6187 13.9383 21.0326 14.2767C20.4464 14.6152 19.7207 14.4205 19.3823 13.8344C19.0438 13.2482 19.2385 12.5225 19.8246 12.184C20.0078 12.0783 20.2045 12.0253 20.3988 12.0193ZM7.97905 13.6116C8.87575 13.6116 9.58545 14.3213 9.58544 15.218C9.58544 16.1147 8.87575 16.8244 7.97905 16.8244C7.08234 16.8244 6.37266 16.1147 6.37266 15.218C6.37266 14.3213 7.08234 13.6116 7.97905 13.6116ZM7.97906 18.8324C9.321 18.8324 10.4604 19.6471 10.944 20.8043C10.0842 21.337 9.06891 21.6436 7.97905 21.6436C6.88919 21.6436 5.87393 21.3369 5.01414 20.8043C5.49768 19.6471 6.63731 18.8324 7.97906 18.8324ZM20.3988 19.2261C20.8263 19.213 21.2423 19.4318 21.475 19.8348C21.8134 20.421 21.6187 21.1467 21.0326 21.4851C20.4464 21.8235 19.7207 21.6289 19.3822 21.0427C19.0438 20.4566 19.2385 19.7308 19.8246 19.3924C20.0078 19.2867 20.2045 19.2321 20.3988 19.2261Z" fill="url(#paint0_linear_1366_1495)"/>
</g>
<defs>
<linearGradient id="paint0_linear_1366_1495" x1="0.75" y1="12" x2="23.2407" y2="12" gradientUnits="userSpaceOnUse">
<stop stop-color="#001FCC"/>
<stop offset="1" stop-color="#9D00FF"/>
</linearGradient>
<clipPath id="clip0_1366_1495">
<rect width="24" height="24" fill="white"/>
</clipPath>
</defs>
</svg>
