<svg width="24" height="24" viewBox="0 0 24 24" fill="none" xmlns="http://www.w3.org/2000/svg">
<g clip-path="url(#clip0_1368_1454)">
<path d="M20.9541 23.2499H2.9949C1.77041 23.2499 0.75 22.2295 0.75 21.005V4.52541C0.75 3.30092 1.56633 2.28052 2.63776 2.28052H3.7602V3.76011H2.63776C2.48469 3.76011 2.28061 4.06623 2.28061 4.52541V21.005C2.28061 21.4132 2.63775 21.7703 3.04592 21.7703H21.0051C21.4133 21.7703 21.7704 21.4132 21.7704 21.005V4.52541C21.7704 4.06623 21.5153 3.76011 21.4133 3.76011H20.2908V2.28052H21.4133C22.4337 2.28052 23.301 3.30092 23.301 4.52541V21.005C23.199 22.2295 22.1786 23.2499 20.9541 23.2499Z" fill="url(#paint0_linear_1368_1454)"/>
<path d="M6.00359 5.29081C5.59542 5.29081 5.23828 4.93367 5.23828 4.52551V1.51531C5.23828 1.10714 5.59542 0.75 6.00359 0.75C6.41175 0.75 6.76889 1.10714 6.76889 1.51531V4.52551C6.71787 4.93367 6.41175 5.29081 6.00359 5.29081Z" fill="url(#paint1_linear_1368_1454)"/>
<path d="M17.945 5.29081C17.5368 5.29081 17.1797 4.93367 17.1797 4.52551V1.51531C17.1797 1.10714 17.5368 0.75 17.945 0.75C18.3532 0.75 18.7103 1.10714 18.7103 1.51531V4.52551C18.7103 4.93367 18.3532 5.29081 17.945 5.29081Z" fill="url(#paint2_linear_1368_1454)"/>
<path d="M8.25 2.28052H15.699V3.81113H8.25V2.28052Z" fill="url(#paint3_linear_1368_1454)"/>
<path d="M2.23047 6.77026H21.7203V8.30088H2.23047V6.77026Z" fill="url(#paint4_linear_1368_1454)"/>
<path d="M18.7109 9.78076H20.1905V11.2604H18.7109V9.78076Z" fill="url(#paint5_linear_1368_1454)"/>
<path d="M15.6992 9.78076H17.2298V11.2604H15.6992V9.78076Z" fill="url(#paint6_linear_1368_1454)"/>
<path d="M12.7383 9.78076H14.2179V11.2604H12.7383V9.78076Z" fill="url(#paint7_linear_1368_1454)"/>
<path d="M9.73047 9.78076H11.2101V11.2604H9.73047V9.78076Z" fill="url(#paint8_linear_1368_1454)"/>
<path d="M6.72266 9.78076H8.25327V11.2604H6.72266V9.78076Z" fill="url(#paint9_linear_1368_1454)"/>
<path d="M18.7109 12.7908H20.1905V14.2704H18.7109V12.7908Z" fill="url(#paint10_linear_1368_1454)"/>
<path d="M15.6992 12.7908H17.2298V14.2704H15.6992V12.7908Z" fill="url(#paint11_linear_1368_1454)"/>
<path d="M12.7383 12.7908H14.2179V14.2704H12.7383V12.7908Z" fill="url(#paint12_linear_1368_1454)"/>
<path d="M9.73047 12.7908H11.2101V14.2704H9.73047V12.7908Z" fill="url(#paint13_linear_1368_1454)"/>
<path d="M6.72266 12.7908H8.25327V14.2704H6.72266V12.7908Z" fill="url(#paint14_linear_1368_1454)"/>
<path d="M3.75781 12.7908H5.2374V14.2704H3.75781V12.7908Z" fill="url(#paint15_linear_1368_1454)"/>
<path d="M18.7109 15.75H20.1905V17.2806H18.7109V15.75Z" fill="url(#paint16_linear_1368_1454)"/>
<path d="M15.6992 15.75H17.2298V17.2806H15.6992V15.75Z" fill="url(#paint17_linear_1368_1454)"/>
<path d="M12.7383 15.75H14.2179V17.2806H12.7383V15.75Z" fill="url(#paint18_linear_1368_1454)"/>
<path d="M9.73047 15.75H11.2101V17.2806H9.73047V15.75Z" fill="url(#paint19_linear_1368_1454)"/>
<path d="M6.72266 15.75H8.25327V17.2806H6.72266V15.75Z" fill="url(#paint20_linear_1368_1454)"/>
<path d="M3.75781 15.75H5.2374V17.2806H3.75781V15.75Z" fill="url(#paint21_linear_1368_1454)"/>
<path d="M15.6992 18.76H17.2298V20.2396H15.6992V18.76Z" fill="url(#paint22_linear_1368_1454)"/>
<path d="M12.7383 18.76H14.2179V20.2396H12.7383V18.76Z" fill="url(#paint23_linear_1368_1454)"/>
<path d="M9.73047 18.76H11.2101V20.2396H9.73047V18.76Z" fill="url(#paint24_linear_1368_1454)"/>
<path d="M6.72266 18.76H8.25327V20.2396H6.72266V18.76Z" fill="url(#paint25_linear_1368_1454)"/>
<path d="M3.75781 18.76H5.2374V20.2396H3.75781V18.76Z" fill="url(#paint26_linear_1368_1454)"/>
</g>
<defs>
<linearGradient id="paint0_linear_1368_1454" x1="0.75" y1="12.7652" x2="23.301" y2="12.7652" gradientUnits="userSpaceOnUse">
<stop stop-color="#001FCC"/>
<stop offset="1" stop-color="#9D00FF"/>
</linearGradient>
<linearGradient id="paint1_linear_1368_1454" x1="5.23828" y1="3.02041" x2="6.76889" y2="3.02041" gradientUnits="userSpaceOnUse">
<stop stop-color="#001FCC"/>
<stop offset="1" stop-color="#9D00FF"/>
</linearGradient>
<linearGradient id="paint2_linear_1368_1454" x1="17.1797" y1="3.02041" x2="18.7103" y2="3.02041" gradientUnits="userSpaceOnUse">
<stop stop-color="#001FCC"/>
<stop offset="1" stop-color="#9D00FF"/>
</linearGradient>
<linearGradient id="paint3_linear_1368_1454" x1="8.25" y1="3.04582" x2="15.699" y2="3.04582" gradientUnits="userSpaceOnUse">
<stop stop-color="#001FCC"/>
<stop offset="1" stop-color="#9D00FF"/>
</linearGradient>
<linearGradient id="paint4_linear_1368_1454" x1="2.23047" y1="7.53557" x2="21.7203" y2="7.53557" gradientUnits="userSpaceOnUse">
<stop stop-color="#001FCC"/>
<stop offset="1" stop-color="#9D00FF"/>
</linearGradient>
<linearGradient id="paint5_linear_1368_1454" x1="18.7109" y1="10.5206" x2="20.1905" y2="10.5206" gradientUnits="userSpaceOnUse">
<stop stop-color="#001FCC"/>
<stop offset="1" stop-color="#9D00FF"/>
</linearGradient>
<linearGradient id="paint6_linear_1368_1454" x1="15.6992" y1="10.5206" x2="17.2298" y2="10.5206" gradientUnits="userSpaceOnUse">
<stop stop-color="#001FCC"/>
<stop offset="1" stop-color="#9D00FF"/>
</linearGradient>
<linearGradient id="paint7_linear_1368_1454" x1="12.7383" y1="10.5206" x2="14.2179" y2="10.5206" gradientUnits="userSpaceOnUse">
<stop stop-color="#001FCC"/>
<stop offset="1" stop-color="#9D00FF"/>
</linearGradient>
<linearGradient id="paint8_linear_1368_1454" x1="9.73047" y1="10.5206" x2="11.2101" y2="10.5206" gradientUnits="userSpaceOnUse">
<stop stop-color="#001FCC"/>
<stop offset="1" stop-color="#9D00FF"/>
</linearGradient>
<linearGradient id="paint9_linear_1368_1454" x1="6.72266" y1="10.5206" x2="8.25327" y2="10.5206" gradientUnits="userSpaceOnUse">
<stop stop-color="#001FCC"/>
<stop offset="1" stop-color="#9D00FF"/>
</linearGradient>
<linearGradient id="paint10_linear_1368_1454" x1="18.7109" y1="13.5306" x2="20.1905" y2="13.5306" gradientUnits="userSpaceOnUse">
<stop stop-color="#001FCC"/>
<stop offset="1" stop-color="#9D00FF"/>
</linearGradient>
<linearGradient id="paint11_linear_1368_1454" x1="15.6992" y1="13.5306" x2="17.2298" y2="13.5306" gradientUnits="userSpaceOnUse">
<stop stop-color="#001FCC"/>
<stop offset="1" stop-color="#9D00FF"/>
</linearGradient>
<linearGradient id="paint12_linear_1368_1454" x1="12.7383" y1="13.5306" x2="14.2179" y2="13.5306" gradientUnits="userSpaceOnUse">
<stop stop-color="#001FCC"/>
<stop offset="1" stop-color="#9D00FF"/>
</linearGradient>
<linearGradient id="paint13_linear_1368_1454" x1="9.73047" y1="13.5306" x2="11.2101" y2="13.5306" gradientUnits="userSpaceOnUse">
<stop stop-color="#001FCC"/>
<stop offset="1" stop-color="#9D00FF"/>
</linearGradient>
<linearGradient id="paint14_linear_1368_1454" x1="6.72266" y1="13.5306" x2="8.25327" y2="13.5306" gradientUnits="userSpaceOnUse">
<stop stop-color="#001FCC"/>
<stop offset="1" stop-color="#9D00FF"/>
</linearGradient>
<linearGradient id="paint15_linear_1368_1454" x1="3.75781" y1="13.5306" x2="5.2374" y2="13.5306" gradientUnits="userSpaceOnUse">
<stop stop-color="#001FCC"/>
<stop offset="1" stop-color="#9D00FF"/>
</linearGradient>
<linearGradient id="paint16_linear_1368_1454" x1="18.7109" y1="16.5153" x2="20.1905" y2="16.5153" gradientUnits="userSpaceOnUse">
<stop stop-color="#001FCC"/>
<stop offset="1" stop-color="#9D00FF"/>
</linearGradient>
<linearGradient id="paint17_linear_1368_1454" x1="15.6992" y1="16.5153" x2="17.2298" y2="16.5153" gradientUnits="userSpaceOnUse">
<stop stop-color="#001FCC"/>
<stop offset="1" stop-color="#9D00FF"/>
</linearGradient>
<linearGradient id="paint18_linear_1368_1454" x1="12.7383" y1="16.5153" x2="14.2179" y2="16.5153" gradientUnits="userSpaceOnUse">
<stop stop-color="#001FCC"/>
<stop offset="1" stop-color="#9D00FF"/>
</linearGradient>
<linearGradient id="paint19_linear_1368_1454" x1="9.73047" y1="16.5153" x2="11.2101" y2="16.5153" gradientUnits="userSpaceOnUse">
<stop stop-color="#001FCC"/>
<stop offset="1" stop-color="#9D00FF"/>
</linearGradient>
<linearGradient id="paint20_linear_1368_1454" x1="6.72266" y1="16.5153" x2="8.25327" y2="16.5153" gradientUnits="userSpaceOnUse">
<stop stop-color="#001FCC"/>
<stop offset="1" stop-color="#9D00FF"/>
</linearGradient>
<linearGradient id="paint21_linear_1368_1454" x1="3.75781" y1="16.5153" x2="5.2374" y2="16.5153" gradientUnits="userSpaceOnUse">
<stop stop-color="#001FCC"/>
<stop offset="1" stop-color="#9D00FF"/>
</linearGradient>
<linearGradient id="paint22_linear_1368_1454" x1="15.6992" y1="19.4998" x2="17.2298" y2="19.4998" gradientUnits="userSpaceOnUse">
<stop stop-color="#001FCC"/>
<stop offset="1" stop-color="#9D00FF"/>
</linearGradient>
<linearGradient id="paint23_linear_1368_1454" x1="12.7383" y1="19.4998" x2="14.2179" y2="19.4998" gradientUnits="userSpaceOnUse">
<stop stop-color="#001FCC"/>
<stop offset="1" stop-color="#9D00FF"/>
</linearGradient>
<linearGradient id="paint24_linear_1368_1454" x1="9.73047" y1="19.4998" x2="11.2101" y2="19.4998" gradientUnits="userSpaceOnUse">
<stop stop-color="#001FCC"/>
<stop offset="1" stop-color="#9D00FF"/>
</linearGradient>
<linearGradient id="paint25_linear_1368_1454" x1="6.72266" y1="19.4998" x2="8.25327" y2="19.4998" gradientUnits="userSpaceOnUse">
<stop stop-color="#001FCC"/>
<stop offset="1" stop-color="#9D00FF"/>
</linearGradient>
<linearGradient id="paint26_linear_1368_1454" x1="3.75781" y1="19.4998" x2="5.2374" y2="19.4998" gradientUnits="userSpaceOnUse">
<stop stop-color="#001FCC"/>
<stop offset="1" stop-color="#9D00FF"/>
</linearGradient>
<clipPath id="clip0_1368_1454">
<rect width="24" height="24" fill="white"/>
</clipPath>
</defs>
</svg>
