<svg width="52" height="52" viewBox="0 0 52 52" fill="none" xmlns="http://www.w3.org/2000/svg">
<rect width="52" height="52" rx="26" fill="url(#paint0_linear_954_2080)"/>
<path d="M35.3333 36V21.3333H16.6667V36H35.3333ZM31.3333 12H34V14.6667H35.3333C36.0406 14.6667 36.7189 14.9476 37.219 15.4477C37.719 15.9478 38 16.6261 38 17.3333V36C38 37.48 36.8133 38.6667 35.3333 38.6667H16.6667C15.9594 38.6667 15.2811 38.3857 14.781 37.8856C14.281 37.3855 14 36.7072 14 36V17.3333C14 15.8533 15.1867 14.6667 16.6667 14.6667H18V12H20.6667V14.6667H31.3333V12ZM24.6667 23.3333H27.3333V27.3333H31.3333V30H27.3333V34H24.6667V30H20.6667V27.3333H24.6667V23.3333Z" fill="white"/>
<defs>
<linearGradient id="paint0_linear_954_2080" x1="0" y1="26" x2="52" y2="26" gradientUnits="userSpaceOnUse">
<stop stop-color="#001FCC"/>
<stop offset="1" stop-color="#9D00FF"/>
</linearGradient>
</defs>
</svg>
