<svg width="52" height="52" viewBox="0 0 52 52" fill="none" xmlns="http://www.w3.org/2000/svg">
<rect width="52" height="52" rx="26" fill="url(#paint0_linear_1162_2187)"/>
<path d="M34.4697 25.5712V24.4898C33.4873 24.8371 32.4357 24.9428 31.4039 24.7978C30.372 24.6528 29.3902 24.2614 28.5416 23.6568C27.693 23.0521 27.0025 22.252 26.5285 21.324C26.0544 20.3961 25.8109 19.3676 25.8184 18.3257C25.8199 16.7931 26.3639 15.3105 27.354 14.1406C26.8471 14.0499 26.3333 14.0029 25.8184 14C23.5239 14 21.3234 14.9115 19.701 16.5339C18.0785 18.1564 17.167 20.3569 17.167 22.6513V25.5712L15.599 27.9178C15.2406 28.4556 15.035 29.0806 15.0041 29.7261C14.9732 30.3716 15.1181 31.0133 15.4234 31.5829C15.7287 32.1525 16.183 32.6284 16.7377 32.96C17.2924 33.2916 17.9267 33.4663 18.5729 33.4655H20.5194C20.7676 34.6878 21.4308 35.7868 22.3965 36.5761C23.3622 37.3654 24.5711 37.7966 25.8184 37.7966C27.0656 37.7966 28.2746 37.3654 29.2403 36.5761C30.206 35.7868 30.8691 34.6878 31.1173 33.4655H33.0639C34.0104 33.4655 34.9181 33.0895 35.5873 32.4203C36.2566 31.751 36.6326 30.8433 36.6326 29.8968C36.6366 29.1909 36.4254 28.5006 36.027 27.9178L34.4697 25.5712ZM25.8184 35.6284C25.1472 35.6287 24.4924 35.4209 23.9443 35.0335C23.3962 34.6461 22.9817 34.0983 22.758 33.4655H28.8788C28.6551 34.0983 28.2406 34.6461 27.6925 35.0335C27.1443 35.4209 26.4896 35.6287 25.8184 35.6284ZM36.6326 18.3257C36.6326 19.1812 36.3789 20.0175 35.9036 20.7289C35.4282 21.4402 34.7527 21.9947 33.9623 22.3221C33.1718 22.6495 32.3021 22.7351 31.463 22.5682C30.6239 22.4013 29.8531 21.9893 29.2482 21.3844C28.6432 20.7794 28.2312 20.0087 28.0643 19.1696C27.8974 18.3305 27.9831 17.4607 28.3105 16.6703C28.6379 15.8799 29.1923 15.2043 29.9037 14.729C30.615 14.2537 31.4514 14 32.3069 14C33.4541 14 34.5544 14.4557 35.3656 15.267C36.1768 16.0782 36.6326 17.1784 36.6326 18.3257Z" fill="white"/>
<defs>
<linearGradient id="paint0_linear_1162_2187" x1="0" y1="26" x2="52" y2="26" gradientUnits="userSpaceOnUse">
<stop stop-color="#001FCC"/>
<stop offset="1" stop-color="#9D00FF"/>
</linearGradient>
</defs>
</svg>
