<svg width="52" height="52" viewBox="0 0 52 52" fill="none" xmlns="http://www.w3.org/2000/svg">
<rect width="52" height="52" rx="26" fill="url(#paint0_linear_954_2086)"/>
<path d="M35.9167 33V35.8333H18.9167V33C18.9167 33 18.9167 27.3333 27.4167 27.3333C35.9167 27.3333 35.9167 33 35.9167 33ZM31.6667 20.25C31.6667 19.4094 31.4174 18.5877 30.9504 17.8888C30.4834 17.1899 29.8197 16.6452 29.0431 16.3235C28.2665 16.0018 27.412 15.9177 26.5875 16.0817C25.7631 16.2457 25.0058 16.6504 24.4115 17.2448C23.8171 17.8392 23.4123 18.5964 23.2483 19.4209C23.0843 20.2453 23.1685 21.0998 23.4902 21.8764C23.8119 22.653 24.3566 23.3168 25.0555 23.7837C25.7544 24.2507 26.5761 24.5 27.4167 24.5C28.5438 24.5 29.6248 24.0522 30.4219 23.2552C31.2189 22.4582 31.6667 21.3772 31.6667 20.25ZM36.2 27.4183C36.9744 28.1328 37.5987 28.9943 38.0365 29.9526C38.4744 30.911 38.7169 31.9469 38.75 33V35.8333H43V33C43 33 43 28.1125 36.2 27.4183ZM34.5 16C34.072 16.0003 33.6466 16.0672 33.2392 16.1983C34.068 17.3869 34.5124 18.801 34.5124 20.25C34.5124 21.699 34.068 23.1131 33.2392 24.3017C33.6466 24.4328 34.072 24.4997 34.5 24.5C35.6272 24.5 36.7082 24.0522 37.5052 23.2552C38.3022 22.4582 38.75 21.3772 38.75 20.25C38.75 19.1228 38.3022 18.0418 37.5052 17.2448C36.7082 16.4478 35.6272 16 34.5 16ZM20.3333 23.0833H16.0833V18.8333H13.25V23.0833H9V25.9167H13.25V30.1667H16.0833V25.9167H20.3333V23.0833Z" fill="white"/>
<defs>
<linearGradient id="paint0_linear_954_2086" x1="0" y1="26" x2="52" y2="26" gradientUnits="userSpaceOnUse">
<stop stop-color="#001FCC"/>
<stop offset="1" stop-color="#9D00FF"/>
</linearGradient>
</defs>
</svg>
