<svg width="24" height="24" viewBox="0 0 24 24" fill="none" xmlns="http://www.w3.org/2000/svg">
<path d="M4.19093 5.70709C6.7414 5.7203 9.29186 5.7335 11.8423 5.74671C12.8181 5.75176 14.359 5.39871 14.9714 6.3162C15.4286 7.00123 15.0532 9.63707 15.0751 10.527C15.2407 10.3614 15.4064 10.1957 15.572 10.0301C11.8112 10.031 8.05039 10.0319 4.28958 10.0328C4.45522 10.1984 4.62086 10.3641 4.7865 10.5297C4.79162 8.83623 4.79674 7.14276 4.80187 5.44929C4.8038 4.80973 3.80998 4.80884 3.80804 5.44929C3.80292 7.14276 3.79779 8.83623 3.79267 10.5297C3.79186 10.7983 4.021 11.0267 4.28958 11.0266C8.05039 11.0257 11.8112 11.0248 15.572 11.0239C15.8357 11.0239 16.0755 10.7963 16.0689 10.527C16.0413 9.40413 16.0136 8.28125 15.9859 7.15837C15.9738 6.66419 16.1166 5.75103 15.9267 5.34194C15.7521 4.96574 15.7112 4.93129 15.309 4.77936C14.0494 4.30359 11.5249 4.75124 10.142 4.74408C8.15832 4.73381 6.17463 4.72354 4.19093 4.71327C3.55133 4.70995 3.55055 5.70378 4.19093 5.70709Z" fill="url(#paint0_linear_1366_1505)"/>
<path d="M4.60109 13.769C6.58876 13.7776 8.57643 13.7863 10.5641 13.795C11.2037 13.7977 11.2045 12.8039 10.5641 12.8011C8.57643 12.7925 6.58876 12.7838 4.60109 12.7752C3.9615 12.7724 3.96069 13.7662 4.60109 13.769Z" fill="url(#paint1_linear_1366_1505)"/>
<path d="M4.52688 16.6362C8.12184 16.6463 11.7168 16.6564 15.3118 16.6666C15.9513 16.6684 15.9522 15.6745 15.3118 15.6727C11.7168 15.6626 8.12184 15.6525 4.52688 15.6423C3.88733 15.6405 3.88642 16.6344 4.52688 16.6362Z" fill="url(#paint2_linear_1366_1505)"/>
<path d="M4.56204 19.1913C7.83799 19.1943 11.1139 19.1973 14.3899 19.2004C15.0294 19.2009 15.0304 18.2071 14.3899 18.2065C11.1139 18.2035 7.83799 18.2005 4.56204 18.1975C3.92253 18.1969 3.92152 19.1907 4.56204 19.1913Z" fill="url(#paint3_linear_1366_1505)"/>
<path d="M18.6599 12.8378C19.897 12.8113 21.1278 12.8268 22.3636 12.8845C22.198 12.7189 22.0323 12.5533 21.8667 12.3876C21.8814 14.0461 21.896 15.7046 21.9107 17.3631C21.9187 18.266 22.1745 19.9679 21.6317 20.657C20.8872 21.6021 19.6729 21.9343 18.5496 22.0218C15.6676 22.2463 12.6929 22.0779 9.80309 22.0754C8.33952 22.0741 6.80169 22.1832 5.34683 22.0368C2.11915 21.7121 1.93629 20.1825 1.88813 17.5378C1.82677 14.1675 1.83863 10.7942 1.81388 7.42339C1.80492 6.20303 1.23908 2.53694 2.84206 1.94705C4.12681 1.47428 6.30521 1.89752 7.66512 1.90422C9.26117 1.91208 10.8572 1.91994 12.4533 1.9278C13.7214 1.93404 17.63 1.35388 18.3438 2.81281C18.9055 3.96097 18.4535 6.33938 18.4553 7.63133C18.4574 9.18069 18.4539 10.7301 18.4443 12.2794C18.4232 15.6598 18.3726 19.0398 18.2986 22.4195C18.2846 23.0593 19.2784 23.0591 19.2924 22.4195C19.3756 18.6174 19.4288 14.8148 19.4445 11.0117C19.452 9.1807 19.4515 7.34962 19.4428 5.51858C19.4377 4.453 19.6516 2.95784 19.0741 1.97721C17.9639 0.0921626 14.1998 0.942573 12.4533 0.933972C10.567 0.924684 8.68079 0.915395 6.79455 0.906107C5.43551 0.899414 3.63483 0.565994 2.34037 1.08269C0.298196 1.89785 0.800986 4.82555 0.8136 6.54388C0.842087 10.4243 0.749818 14.3281 0.903243 18.2052C0.984711 20.264 1.46497 22.4298 3.73781 22.9151C6.77439 23.5635 10.3526 23.0732 13.4494 23.0599C15.9598 23.0491 19.8097 23.7411 21.86 21.8866C22.7419 21.0891 22.8795 20.1461 22.9192 19.0216C22.9969 16.8187 22.88 14.5923 22.8605 12.3876C22.8581 12.1097 22.6345 11.9034 22.3636 11.8907C21.1276 11.833 19.8968 11.8175 18.6599 11.844C18.0213 11.8577 18.019 12.8515 18.6599 12.8378Z" fill="url(#paint4_linear_1366_1505)"/>
<defs>
<linearGradient id="paint0_linear_1366_1505" x1="3.71094" y1="7.79334" x2="16.069" y2="7.79334" gradientUnits="userSpaceOnUse">
<stop stop-color="#001FCC"/>
<stop offset="1" stop-color="#9D00FF"/>
</linearGradient>
<linearGradient id="paint1_linear_1366_1505" x1="4.12109" y1="13.2851" x2="11.0441" y2="13.2851" gradientUnits="userSpaceOnUse">
<stop stop-color="#001FCC"/>
<stop offset="1" stop-color="#9D00FF"/>
</linearGradient>
<linearGradient id="paint2_linear_1366_1505" x1="4.04687" y1="16.1544" x2="15.7918" y2="16.1545" gradientUnits="userSpaceOnUse">
<stop stop-color="#001FCC"/>
<stop offset="1" stop-color="#9D00FF"/>
</linearGradient>
<linearGradient id="paint3_linear_1366_1505" x1="4.08203" y1="18.6989" x2="14.8699" y2="18.6989" gradientUnits="userSpaceOnUse">
<stop stop-color="#001FCC"/>
<stop offset="1" stop-color="#9D00FF"/>
</linearGradient>
<linearGradient id="paint4_linear_1366_1505" x1="0.75" y1="12" x2="22.9455" y2="12" gradientUnits="userSpaceOnUse">
<stop stop-color="#001FCC"/>
<stop offset="1" stop-color="#9D00FF"/>
</linearGradient>
</defs>
</svg>
