<svg width="24" height="24" viewBox="0 0 24 24" fill="none" xmlns="http://www.w3.org/2000/svg">
<g clip-path="url(#clip0_1366_1519)">
<g clip-path="url(#clip1_1366_1519)">
<path d="M18 12.75L19.434 15.5272L22.5 15.9728L20.25 18L20.8282 21L18 19.3125L15.1718 21L15.75 18L13.5 15.9728L16.65 15.5272L18 12.75Z" fill="url(#paint0_linear_1366_1519)"/>
<path d="M9 12H4.5V13.5H9V12Z" fill="url(#paint1_linear_1366_1519)"/>
<path d="M12 9H4.5V10.5H12V9Z" fill="url(#paint2_linear_1366_1519)"/>
<path d="M12 6H4.5V7.5H12V6Z" fill="url(#paint3_linear_1366_1519)"/>
<path d="M12 19.5H3V4.5H21V12H22.5V4.5C22.5 4.10218 22.342 3.72064 22.0607 3.43934C21.7794 3.15804 21.3978 3 21 3H3C2.60218 3 2.22064 3.15804 1.93934 3.43934C1.65804 3.72064 1.5 4.10218 1.5 4.5V19.5C1.5 19.8978 1.65804 20.2794 1.93934 20.5607C2.22064 20.842 2.60218 21 3 21H12V19.5Z" fill="url(#paint4_linear_1366_1519)"/>
</g>
</g>
<defs>
<linearGradient id="paint0_linear_1366_1519" x1="13.5" y1="16.875" x2="22.5" y2="16.875" gradientUnits="userSpaceOnUse">
<stop stop-color="#001FCC"/>
<stop offset="1" stop-color="#9D00FF"/>
</linearGradient>
<linearGradient id="paint1_linear_1366_1519" x1="4.5" y1="12.75" x2="9" y2="12.75" gradientUnits="userSpaceOnUse">
<stop stop-color="#001FCC"/>
<stop offset="1" stop-color="#9D00FF"/>
</linearGradient>
<linearGradient id="paint2_linear_1366_1519" x1="4.5" y1="9.75" x2="12" y2="9.75" gradientUnits="userSpaceOnUse">
<stop stop-color="#001FCC"/>
<stop offset="1" stop-color="#9D00FF"/>
</linearGradient>
<linearGradient id="paint3_linear_1366_1519" x1="4.5" y1="6.75" x2="12" y2="6.75" gradientUnits="userSpaceOnUse">
<stop stop-color="#001FCC"/>
<stop offset="1" stop-color="#9D00FF"/>
</linearGradient>
<linearGradient id="paint4_linear_1366_1519" x1="1.5" y1="12" x2="22.5" y2="12" gradientUnits="userSpaceOnUse">
<stop stop-color="#001FCC"/>
<stop offset="1" stop-color="#9D00FF"/>
</linearGradient>
<clipPath id="clip0_1366_1519">
<rect width="24" height="24" fill="white"/>
</clipPath>
<clipPath id="clip1_1366_1519">
<rect width="24" height="24" fill="white"/>
</clipPath>
</defs>
</svg>
