<svg width="24" height="24" viewBox="0 0 24 24" fill="none" xmlns="http://www.w3.org/2000/svg">
<g clip-path="url(#clip0_1366_1500)">
<path fill-rule="evenodd" clip-rule="evenodd" d="M7.07143 1.5C5.74979 1.5 4.66071 2.58908 4.66071 3.91071V6.32143H3.05357C2.84045 6.32143 2.63607 6.40609 2.48537 6.55679C2.33467 6.70749 2.25 6.91188 2.25 7.125C2.25 7.33812 2.33467 7.54251 2.48537 7.69321C2.63607 7.84391 2.84045 7.92857 3.05357 7.92857H4.66071V11.9464H3.05357C2.84045 11.9464 2.63607 12.0311 2.48537 12.1818C2.33467 12.3325 2.25 12.5369 2.25 12.75C2.25 12.9631 2.33467 13.1675 2.48537 13.3182C2.63607 13.4689 2.84045 13.5536 3.05357 13.5536H4.66071V17.5714H3.05357C2.84045 17.5714 2.63607 17.6561 2.48537 17.8068C2.33467 17.9575 2.25 18.1619 2.25 18.375C2.25 18.5881 2.33467 18.7925 2.48537 18.9432C2.63607 19.0939 2.84045 19.1786 3.05357 19.1786H4.66071V21.5893C4.66071 22.9109 5.74979 24 7.07143 24H20.7321C22.0538 24 23.1429 22.9109 23.1429 21.5893V3.91071C23.1429 2.58908 22.0538 1.5 20.7321 1.5H7.07143ZM45.6429 1.5C44.3212 1.5 43.2321 2.58908 43.2321 3.91071V6.32143H41.625C41.4119 6.32143 41.2075 6.40609 41.0568 6.55679C40.9061 6.70749 40.8214 6.91188 40.8214 7.125C40.8214 7.33812 40.9061 7.54251 41.0568 7.69321C41.2075 7.84391 41.4119 7.92857 41.625 7.92857H43.2321V11.9464H41.625C41.4119 11.9464 41.2075 12.0311 41.0568 12.1818C40.9061 12.3325 40.8214 12.5369 40.8214 12.75C40.8214 12.9631 40.9061 13.1675 41.0568 13.3182C41.2075 13.4689 41.4119 13.5536 41.625 13.5536H43.2321V17.5714H41.625C41.4119 17.5714 41.2075 17.6561 41.0568 17.8068C40.9061 17.9575 40.8214 18.1619 40.8214 18.375C40.8214 18.5881 40.9061 18.7925 41.0568 18.9432C41.2075 19.0939 41.4119 19.1786 41.625 19.1786H43.2321V21.5893C43.2321 22.9109 44.3212 24 45.6429 24H59.3036C60.6252 24 61.7143 22.9109 61.7143 21.5893V3.91071C61.7143 2.58908 60.6252 1.5 59.3036 1.5H45.6429ZM7.07143 3.10714H20.7321C21.1912 3.10714 21.5357 3.45164 21.5357 3.91071V21.5893C21.5357 22.0484 21.1912 22.3929 20.7321 22.3929H7.07143C6.61235 22.3929 6.26786 22.0484 6.26786 21.5893V19.1786H7.07143C7.28455 19.1786 7.48893 19.0939 7.63963 18.9432C7.79033 18.7925 7.875 18.5881 7.875 18.375C7.875 18.1619 7.79033 17.9575 7.63963 17.8068C7.48893 17.6561 7.28455 17.5714 7.07143 17.5714H6.26786V13.5536H7.07143C7.28455 13.5536 7.48893 13.4689 7.63963 13.3182C7.79033 13.1675 7.875 12.9631 7.875 12.75C7.875 12.5369 7.79033 12.3325 7.63963 12.1818C7.48893 12.0311 7.28455 11.9464 7.07143 11.9464H6.26786V7.92857H7.07143C7.28455 7.92857 7.48893 7.84391 7.63963 7.69321C7.79033 7.54251 7.875 7.33812 7.875 7.125C7.875 6.91188 7.79033 6.70749 7.63963 6.55679C7.48893 6.40609 7.28455 6.32143 7.07143 6.32143H6.26786V3.91071C6.26786 3.45164 6.61235 3.10714 7.07143 3.10714ZM45.6429 3.10714H59.3036C59.7627 3.10714 60.1071 3.45164 60.1071 3.91071V21.5893C60.1071 22.0484 59.7627 22.3929 59.3036 22.3929H45.6429C45.1838 22.3929 44.8393 22.0484 44.8393 21.5893V19.1786H45.6429C45.856 19.1786 46.0604 19.0939 46.2111 18.9432C46.3618 18.7925 46.4464 18.5881 46.4464 18.375C46.4464 18.1619 46.3618 17.9575 46.2111 17.8068C46.0604 17.6561 45.856 17.5714 45.6429 17.5714H44.8393V13.5536H45.6429C45.856 13.5536 46.0604 13.4689 46.2111 13.3182C46.3618 13.1675 46.4464 12.9631 46.4464 12.75C46.4464 12.5369 46.3618 12.3325 46.2111 12.1818C46.0604 12.0311 45.856 11.9464 45.6429 11.9464H44.8393V7.92857H45.6429C45.856 7.92857 46.0604 7.84391 46.2111 7.69321C46.3618 7.54251 46.4464 7.33812 46.4464 7.125C46.4464 6.91188 46.3618 6.70749 46.2111 6.55679C46.0604 6.40609 45.856 6.32143 45.6429 6.32143H44.8393V3.91071C44.8393 3.45164 45.1838 3.10714 45.6429 3.10714ZM13.5 5.51786C11.7343 5.51786 10.2857 6.96647 10.2857 8.73214C10.2857 10.4978 11.7343 11.9464 13.5 11.9464C15.2657 11.9464 16.7143 10.4978 16.7143 8.73214C16.7143 6.96647 15.2657 5.51786 13.5 5.51786ZM13.5 7.125C14.3971 7.125 15.1071 7.83502 15.1071 8.73214C15.1071 9.62926 14.3971 10.3393 13.5 10.3393C12.6029 10.3393 11.8929 9.62926 11.8929 8.73214C11.8929 7.83502 12.6029 7.125 13.5 7.125ZM52.875 7.125C49.7779 7.125 47.25 9.65293 47.25 12.75C47.25 15.8471 49.7779 18.375 52.875 18.375C52.9805 18.375 53.085 18.3542 53.1825 18.3138C53.28 18.2734 53.3686 18.2143 53.4432 18.1396C53.5178 18.065 53.577 17.9764 53.6174 17.8789C53.6578 17.7814 53.6786 17.677 53.6786 17.5714C53.6786 17.4659 53.6578 17.3614 53.6174 17.2639C53.577 17.1664 53.5178 17.0778 53.4432 17.0032C53.3686 16.9286 53.28 16.8694 53.1825 16.829C53.085 16.7886 52.9805 16.7679 52.875 16.7679C50.6465 16.7679 48.8571 14.9785 48.8571 12.75C48.8571 10.5215 50.6465 8.73214 52.875 8.73214C55.1035 8.73214 56.8929 10.5215 56.8929 12.75V14.3571C56.8929 14.8105 56.5426 15.1607 56.0893 15.1607C55.636 15.1607 55.2857 14.8105 55.2857 14.3571V12.75C55.2857 11.4281 54.1969 10.3393 52.875 10.3393C51.5531 10.3393 50.4643 11.4281 50.4643 12.75C50.4643 14.0719 51.5531 15.1607 52.875 15.1607C53.1893 15.1607 53.49 15.0981 53.7665 14.9865C54.0465 16.0074 54.985 16.7679 56.0893 16.7679C57.4112 16.7679 58.5 15.679 58.5 14.3571V12.75C58.5 9.65293 55.9721 7.125 52.875 7.125ZM52.875 11.9464C53.3283 11.9464 53.6786 12.2967 53.6786 12.75C53.6786 13.2033 53.3283 13.5536 52.875 13.5536C52.4217 13.5536 52.0714 13.2033 52.0714 12.75C52.0714 12.2967 52.4217 11.9464 52.875 11.9464ZM11.8929 12.75C10.126 12.75 8.67857 14.1975 8.67857 15.9643C8.67857 17.7311 10.126 19.1786 11.8929 19.1786H15.1071C16.874 19.1786 18.3214 17.7311 18.3214 15.9643C18.3214 14.1975 16.874 12.75 15.1071 12.75H11.8929ZM11.8929 14.3571H15.1071C16.0114 14.3571 16.7143 15.06 16.7143 15.9643C16.7143 16.8685 16.0114 17.5714 15.1071 17.5714H11.8929C10.9886 17.5714 10.2857 16.8685 10.2857 15.9643C10.2857 15.06 10.9886 14.3571 11.8929 14.3571Z" fill="url(#paint0_linear_1366_1500)"/>
</g>
<defs>
<linearGradient id="paint0_linear_1366_1500" x1="2.25" y1="12.75" x2="61.7143" y2="12.75" gradientUnits="userSpaceOnUse">
<stop stop-color="#001FCC"/>
<stop offset="1" stop-color="#9D00FF"/>
</linearGradient>
<clipPath id="clip0_1366_1500">
<rect width="24" height="24" fill="white"/>
</clipPath>
</defs>
</svg>
