<svg width="52" height="52" viewBox="0 0 52 52" fill="none" xmlns="http://www.w3.org/2000/svg">
<rect width="52" height="52" rx="26" fill="url(#paint0_linear_954_2084)"/>
<path d="M35.9043 14C36.5389 14 37.1672 14.125 37.7535 14.3678C38.3398 14.6107 38.8725 14.9666 39.3212 15.4153C39.7699 15.864 40.1258 16.3967 40.3686 16.983C40.6115 17.5692 40.7365 18.1976 40.7365 18.8322V32.9644C40.7365 33.599 40.6115 34.2274 40.3686 34.8136C40.1258 35.3999 39.7699 35.9326 39.3212 36.3813C38.8725 36.83 38.3398 37.1859 37.7535 37.4288C37.1672 37.6716 36.5389 37.7966 35.9043 37.7966H15.8322C15.1976 37.7966 14.5692 37.6716 13.983 37.4288C13.3967 37.1859 12.864 36.83 12.4153 36.3813C11.9666 35.9326 11.6107 35.3999 11.3678 34.8136C11.125 34.2274 11 33.599 11 32.9644V18.8322C10.9999 17.5979 11.4721 16.4104 12.3198 15.5132C13.1675 14.6161 14.3263 14.0773 15.5586 14.0074L15.8322 14H35.9043ZM21.7839 26.638H16.5756C16.3061 26.638 16.0458 26.7356 15.8427 26.9127C15.6396 27.0898 15.5075 27.3345 15.4709 27.6015L15.4605 27.7531V28.617C15.4605 30.5097 16.8997 31.4702 19.179 31.4702C21.3587 31.4702 22.7712 30.593 22.8901 28.8608L22.8991 28.6184V27.7531C22.899 27.4834 22.8012 27.2229 22.6238 27.0198C22.4464 26.8167 22.2013 26.6847 21.9341 26.6484L21.7839 26.638ZM26.2399 26.638L24.1346 26.6365C24.2625 26.9071 24.3457 27.203 24.374 27.5152L24.3859 27.7531V28.6184L24.371 28.9961C24.3426 29.4552 24.2397 29.9067 24.0662 30.3328C24.2268 30.3476 24.3933 30.3551 24.5673 30.3551C26.1314 30.3551 27.2331 29.7499 27.3461 28.4668L27.3551 28.2482V27.7531C27.355 27.4836 27.2575 27.2233 27.0803 27.0202C26.9032 26.8171 26.6586 26.6851 26.3916 26.6484L26.2399 26.638ZM35.1609 26.638H30.7004L30.5488 26.6484C30.2819 26.6851 30.0373 26.8172 29.8602 27.0203C29.6832 27.2234 29.5856 27.4837 29.5856 27.7531C29.5856 28.0225 29.6832 28.2828 29.8602 28.4859C30.0373 28.689 30.2819 28.8211 30.5488 28.8578L30.7004 28.8682H35.1609L35.3125 28.8578C35.5794 28.8211 35.824 28.689 36.0011 28.4859C36.1781 28.2828 36.2757 28.0225 36.2757 27.7531C36.2757 27.4837 36.1781 27.2234 36.0011 27.0203C35.824 26.8172 35.5794 26.6851 35.3125 26.6484L35.1609 26.638ZM19.1775 20.6907C18.5858 20.6907 18.0184 20.9258 17.6 21.3441C17.1816 21.7625 16.9466 22.33 16.9466 22.9217C16.9466 23.5134 17.1816 24.0808 17.6 24.4992C18.0184 24.9176 18.5858 25.1527 19.1775 25.1527C19.7692 25.1527 20.3367 24.9176 20.7551 24.4992C21.1735 24.0808 21.4085 23.5134 21.4085 22.9217C21.4085 22.33 21.1735 21.7625 20.7551 21.3441C20.3367 20.9258 19.7692 20.6907 19.1775 20.6907ZM24.9315 21.4371C24.6879 21.4371 24.4466 21.4851 24.2214 21.5783C23.9963 21.6716 23.7918 21.8083 23.6195 21.9806C23.4472 22.1529 23.3105 22.3574 23.2172 22.5826C23.124 22.8077 23.076 23.049 23.076 23.2926C23.076 23.5363 23.124 23.7776 23.2172 24.0027C23.3105 24.2279 23.4472 24.4324 23.6195 24.6047C23.7918 24.777 23.9963 24.9137 24.2214 25.007C24.4466 25.1002 24.6879 25.1482 24.9315 25.1482C25.4237 25.1482 25.8956 24.9527 26.2436 24.6047C26.5916 24.2567 26.7871 23.7848 26.7871 23.2926C26.7871 22.8005 26.5916 22.3286 26.2436 21.9806C25.8956 21.6326 25.4237 21.4371 24.9315 21.4371ZM35.1609 22.1775H30.7004L30.5488 22.1879C30.2819 22.2247 30.0373 22.3568 29.8602 22.5598C29.6832 22.7629 29.5856 23.0232 29.5856 23.2926C29.5856 23.5621 29.6832 23.8224 29.8602 24.0254C30.0373 24.2285 30.2819 24.3606 30.5488 24.3974L30.7004 24.4078H35.1609L35.3125 24.3974C35.5794 24.3606 35.824 24.2285 36.0011 24.0254C36.1781 23.8224 36.2757 23.5621 36.2757 23.2926C36.2757 23.0232 36.1781 22.7629 36.0011 22.5598C35.824 22.3568 35.5794 22.2247 35.3125 22.1879L35.1609 22.1775Z" fill="white"/>
<defs>
<linearGradient id="paint0_linear_954_2084" x1="0" y1="26" x2="52" y2="26" gradientUnits="userSpaceOnUse">
<stop stop-color="#001FCC"/>
<stop offset="1" stop-color="#9D00FF"/>
</linearGradient>
</defs>
</svg>
