<svg width="52" height="52" viewBox="0 0 52 52" fill="none" xmlns="http://www.w3.org/2000/svg">
<rect width="52" height="52" rx="26" fill="url(#paint0_linear_1161_2180)"/>
<path d="M25.8408 23.5058C28.4657 23.5058 30.5936 21.3778 30.5936 18.7529C30.5936 16.1279 28.4657 14 25.8408 14C23.2158 14 21.0879 16.1279 21.0879 18.7529C21.0879 21.3778 23.2158 23.5058 25.8408 23.5058Z" fill="white"/>
<path d="M37.6115 34.501C37.1185 32.2563 35.988 30.2016 34.3558 28.5837C33.9596 28.1862 33.5303 27.8231 33.0725 27.4985C30.9876 25.9346 28.4464 25.0996 25.8402 25.122C22.6535 25.1057 19.5896 26.3501 17.3167 28.5837C15.6845 30.2016 14.554 32.2563 14.061 34.501C13.9753 34.898 13.9799 35.3091 14.0746 35.704C14.1692 36.0988 14.3513 36.4674 14.6076 36.7824C14.873 37.1042 15.2072 37.3623 15.5856 37.5378C15.9639 37.7133 16.3769 37.8016 16.7939 37.7964H34.8865C35.3048 37.7966 35.7178 37.7028 36.0949 37.5218C36.472 37.3408 36.8035 37.0773 37.0649 36.7507C37.3166 36.4394 37.4961 36.0762 37.5906 35.6872C37.6852 35.2982 37.6923 34.8931 37.6115 34.501Z" fill="white"/>
<defs>
<linearGradient id="paint0_linear_1161_2180" x1="0" y1="26" x2="52" y2="26" gradientUnits="userSpaceOnUse">
<stop stop-color="#001FCC"/>
<stop offset="1" stop-color="#9D00FF"/>
</linearGradient>
</defs>
</svg>
